<svg width="42" height="42" viewBox="0 0 42 42" fill="none" xmlns="http://www.w3.org/2000/svg">
<path d="M41.5775 20.7893C41.5775 32.2706 32.2701 41.578 20.7888 41.578C9.30745 41.578 0 32.2706 0 20.7893C0 9.30794 9.30745 0.000488281 20.7888 0.000488281C32.2701 0.000488281 41.5775 9.30794 41.5775 20.7893Z" fill="url(#paint0_linear_1_15)"/>
<path d="M20.8302 32.2973C20.8302 33.3228 20.0731 34.154 19.1392 34.154C18.2053 34.154 17.4481 33.3228 17.4481 32.2973C17.4481 31.2719 18.2053 30.4407 19.1392 30.4407C20.0731 30.4407 20.8302 31.2719 20.8302 32.2973Z" fill="white"/>
<path d="M28.2707 32.2973C28.2707 33.3228 27.5136 34.154 26.5796 34.154C25.6457 34.154 24.8886 33.3228 24.8886 32.2973C24.8886 31.2719 25.6457 30.4407 26.5796 30.4407C27.5136 30.4407 28.2707 31.2719 28.2707 32.2973Z" fill="white"/>
<path d="M23.6473 20.619L24.6586 20.6193V23.1661C24.6586 24.2228 24.0281 25.0789 23.1606 25.1964C22.7464 25.2552 22.2381 25.2846 21.6358 25.2846C16.693 25.2846 15.0576 18.6734 17.1777 14.3926L11.4274 10.7474C10.8613 10.3888 10.1374 10.6016 9.81054 11.2232C9.48356 11.8447 9.6776 12.6396 10.2437 12.9986L12.4581 14.4024C10.3889 21.8182 14.1325 28.9816 21.3534 28.9816C22.8029 28.9816 24.0923 28.8742 25.2217 28.6588C25.5137 28.6041 25.7824 28.5446 26.0382 28.4797C26.3239 28.4072 26.5936 28.3285 26.8612 28.2433C27.6668 27.9876 28.2131 27.0857 28.2131 26.0776V17.6777C28.2131 17.2603 27.9335 16.9219 27.5887 16.9219H20.5345C20.5345 16.9219 20.7134 17.4931 21.0491 18.1864C21.5676 19.2573 22.4604 20.619 23.6473 20.619Z" fill="white"/>
<path d="M14.5034 10.5817C17.1291 7.67122 21.1381 7.37785 24.8213 7.43116C25.1941 7.4366 25.5665 7.44204 25.9378 7.44385C26.0563 7.44422 26.1379 7.57549 26.0943 7.69661C25.2884 9.93585 24.5846 10.9781 22.4828 11.1416C20.8489 11.1416 19.3163 11.7341 18.1943 12.9214L14.5034 10.5817Z" fill="white"/>
<defs>
<linearGradient id="paint0_linear_1_15" x1="9.00847" y1="1.4854" x2="43.821" y2="33.9771" gradientUnits="userSpaceOnUse">
<stop stop-color="#FF5E5F"/>
<stop offset="1" stop-color="#F54748"/>
</linearGradient>
</defs>
</svg>
